<svg width="47" height="45" viewBox="0 0 47 45" fill="none" xmlns="http://www.w3.org/2000/svg">
<g clip-path="url(#clip0_13_443)">
<path d="M11 22.5C17.0751 22.5 22 17.5751 22 11.5C22 5.42487 17.0751 0.5 11 0.5C4.92487 0.5 0 5.42487 0 11.5C0 17.5751 4.92487 22.5 11 22.5Z" fill="#5552E8"/>
<path d="M35.75 44.5C29.6749 44.5 24.75 39.5751 24.75 33.5C24.75 27.4249 29.6749 22.5 35.75 22.5C41.8251 22.5 46.75 27.4249 46.75 33.5C46.75 39.5751 41.8251 44.5 35.75 44.5Z" fill="#5552E8"/>
<path opacity="0.4" d="M44 0.5H24.75V19.75H44V0.5Z" fill="#5552E8"/>
<path opacity="0.4" d="M2.75 25.25H22V44.5H2.75V25.25Z" fill="#5552E8"/>
</g>
<defs>
<clipPath id="clip0_13_443">
<rect width="46.75" height="44" fill="white" transform="translate(0 0.5)"/>
</clipPath>
</defs>
</svg>
